<?xml version="1.0" encoding="UTF-8"?>
<svg xmlns="http://www.w3.org/2000/svg" id="Layer_1" data-name="Layer 1" viewBox="0 0 622.23 189.38">
  <defs>
    <style>
      .cls-1 {
        fill: #ff600a;
      }
    </style>
  </defs>
  <path class="cls-1" d="M0,0v189.38h622.23V0H0ZM609.6,176.76H12.63V12.61h596.97v164.15Z"></path>
  <path class="cls-1" d="M95.22,127.39v-8.37c-.16-.34-.5-.52-.69-.7h-42.88c-.3-.16-.44-.46-.58-.59V33.93l-.52-.52h-10.48v94.5h54.62l.53-.51Z"></path>
  <path class="cls-1" d="M94.53,115.76c.34-.16.7-.72.7-1.04-.48-8.32-.34-8.53-.53-8.71h-29.43c-.13-.14.37-.25-.44-72.09l-.52-.53h-10.14l-.52.53v81.3l.52.53h40.35Z"></path>
  <path class="cls-1" d="M115.55,127.68c.47,0,1.03.27,1.42.27h34.28c.39,0,.95-.25,1.42-.27,3.77-.16,9.68-2.34,11.5-7.39.64-1.81.84-3.9,1.15-5.77l-.49-78.33h-9.71l-.51.5v78.93c0,1.73-2.76,3.01-3.83,3.01h-33.35c-.39,0-1.59-.4-2.31-.82-.33-.19-1.51-1.99-1.52-2.38V36.7l-.51-.51h-9.84l-.51.51v77.69c0,2.33,1.21,6.1,2.22,7.78,2.43,4.06,7.3,5.4,10.58,5.51Z"></path>
  <path class="cls-1" d="M184.51,127.44V45.63h2.69c10.22,17.52,20.62,35.54,30.6,53.09.12.16.49.35.69.33l30.75-53.42h2.85v81.8l.5.51h9.69c.18-.17.36-.23.09-30.66.12-60.71.25-60.93.07-61.1h-18.39c-2.09,3.13-5.06,8.96-7.76,13.58-.14.23-.12.62-.25.9-3.26,5.92-6.66,11.8-9.84,17.59-2.54,4.6-4.83,9.66-7.89,14.05-5.39-9.08-10.34-18.22-15.21-27.29-.5-.95-1.26-1.84-1.77-2.79-2.72-5.07-5.57-10.44-8.48-15.53-.17-.33-.57-.51-.96-.49h-17.82v91.67h9.94l.51-.42Z"></path>
  <path class="cls-1" d="M118.68,116.15h30.86c.45,0,2.58-.85,2.56-1.96V36.36h-10.67v69.76c-.17.29-.46.43-.59.57h-13.46c-.29-.15-.42-.44-.58-.65V36.36h-10.66v77.09c-.03,1.01.88,2.7,2.55,2.7Z"></path>
  <path class="cls-1" d="M239.54,127.94h9.54c.18-.17.35-.35.42-.52V50.94c-.64.31-.9.77-1.09,1.11-9.72,16.71-19.25,33.6-28.82,50-.33.56-.75.43-1.35.43-.39,0-.91.13-1.1-.18-1.98-3.11-3.92-6.54-5.86-9.88-7.96-13.7-15.57-27.33-23.55-41.15-.1-.16-.32-.35-.55-.33v76.47l.35.52h9.38c.18-.17-.26-.38.51-39.05,0-.31.11-.55.37-.7,6.32,10.68,12.3,21.4,18.9,31.9.25.43,1.23.25,1.62.25.6,0,1.5.12,1.87-.5,6.23-10.31,12.33-20.81,18.42-31.21.11-.15.21-.12.33-.13.13.14.23.27.23.27v38.66l.39.52Z"></path>
  <path class="cls-1" d="M346.72,127.96h9.87c.18-.18-.27-.39.52-85.6.06-1.11.99-.87,1.5-.87.28,0,1.18-.06,1.46.44,13.76,23.52,27.46,47.04,41.27,70.84V34.38h-10.48v39.04c-.01.4-.25.38-.37.39-5.83-9.75-11.69-19.71-17.2-29.27-1.86-3.25-3.64-6.53-5.48-9.66-.2-.34-.58-.51-.98-.51h-20.13l-.52.52v92.23c0,.4.2.68.53.85Z"></path>
  <path class="cls-1" d="M385.87,92.21c-4.1-7.17-8.45-14.37-12.57-21.54-4.42-7.68-8.75-15.36-12.93-22.81-.1-.16-.33-.36-.56-.33v79.9l.36.53h10.05c.18-.17.34-.33.55-.51v-40.68h.49c4.72,8.21,9.71,16.75,14.64,25.32,2.34,4.06,4.83,8.42,7.13,12.35.1.16,1.39,3.52,2.36,3.52h19.33l.52-.52V34.88l-.52-.52h-10.04l-.52.52v84.94c0,.87.02,1.01-1.03,1.01-.51,0-.9.24-1.48-.75-1.88-3.25-3.78-6.85-5.64-10.14-3.35-5.88-6.83-11.96-10.14-17.74Z"></path>
  <path class="cls-1" d="M320.35,91.6l.51-.5v-42.6l-.51-.51h-32.62c-1.65,0-2.66,1.42-2.89,3.02l.49,40.6h35.02ZM295.58,57.79h14.55v24.33h-14.55v-24.33Z"></path>
  <path class="cls-1" d="M295.55,127.59l.45-24.19h13.74c.13.15.26.09.11,8.01.28,15.56.59,16,.47,16.22-.03.05-.07.09-.15.3h10.18l.51-.49v-32.82l-.51-.51h-35l-.51.51.48,33.32h9.86l.36-.34Z"></path>
  <path class="cls-1" d="M282.17,127.94V49.79c.03-1.05.98-4.13,3.08-4.15h38.12v81.79l.5.51h9.84l.51-.51V36.7l-.51-.51h-47.84c-.39,0-3.3.43-4.85.81-.31.08-.64.31-.93.37-2.48.6-5.31,2.68-6.84,5.38-.39.68-1.76,5.1-1.75,6.54v78.15l.51.5h10.17Z"></path>
  <path class="cls-1" d="M581.65,127.95l.51-.51v-8.29l-.51-.51h-41.78c-.29-.15-.56-.55-.56-.86l-.49-81.59h-9.71l-.51.5v90.74l.51.51h52.54Z"></path>
  <path class="cls-1" d="M542.47,116.15h39.17l.51-.51c-.46-8.57-.33-8.78-.51-8.95h-28.57c-.13-.14-.42-.18-.42-.57V36.7l-.51-.51h-9.84l-.51.51v78.46c0,.39.35.83.68.99Z"></path>
  <path class="cls-1" d="M473.21,91.6v-43.61h-32.88c-.39-.01-1.16.29-1.61.5-.31.16-1.29,1.97-1.28,2.19v40.42l.51.5h35.26ZM448.41,57.63h14.01l.49,24.14c-.16.33-.48.53-.87.51h-13.62v-24.66Z"></path>
  <path class="cls-1" d="M434.44,127.95l.51-.51V48.7c0-.85,1.69-3.05,2.9-3.06h38.12v81.79l.5.51h9.84l.51-.51V36.7l-.51-.51h-47.84c-1.84,0-5.83,1.01-6.88,1.44-1.01.41-1.88,1.11-2.81,1.71-2.6,1.71-4.69,7.5-4.69,10.1v78l.51.51h9.84Z"></path>
  <path class="cls-1" d="M462.76,104.87v22.56l.51.5h10.02v-33.82h-35.33l-.51.5v32.82l.51.51h9.83l.62-.51v-24.04h13.93c1.24.76.41.98.41,1.47Z"></path>
  <path class="cls-1" d="M86.02,151.15c2.53,0,3.72-.9,3.72-3.21v-3.88c0-2.31-1.19-3.21-3.72-3.21h-14.18v16.55h3.79v-6.26h3.66l6.67,6.26h5.52l-7.63-6.26h2.18ZM75.62,148.32v-4.62h8.66c1.19,0,1.73.22,1.73,1.32v1.99c0,1.09-.55,1.31-1.73,1.31h-8.66Z"></path>
  <rect class="cls-1" x="95.42" y="140.85" width="3.85" height="16.55"></rect>
  <path class="cls-1" d="M121.56,149.54c0,.51.06,1.48.16,2.85-.58-.67-1.22-1.25-1.89-1.8l-11.64-9.75h-2.63v16.55h3.46v-8.95c0-.48-.03-1.35-.16-2.63.45.51.9.93,1.38,1.35l12.16,10.23h2.63v-16.55h-3.46v8.69Z"></path>
  <path class="cls-1" d="M146.5,140.85h-11.42c-3.11,0-4.11.8-4.11,3.91v8.73c0,3.11.99,3.91,4.11,3.91h11.42c3.11,0,4.11-.8,4.11-3.91v-5.71h-10.04v2.82h6.29v3.69h-12.03v-10.49h12.03v1.86l3.75-.67v-.39c0-2.98-1.09-3.75-4.11-3.75Z"></path>
  <path class="cls-1" d="M163.52,144.76v1.83c0,3.11.99,3.91,4.11,3.91h10.33v3.79h-11.71v-1.96l-3.4.71v.45c0,3.11,1.03,3.91,4.14,3.91h10.23c3.11,0,4.14-.8,4.14-3.91v-2.28c0-3.11-1.03-3.91-4.14-3.91h-10.33v-3.56h10.84v1.89l3.4-.8v-.35c0-2.85-1.15-3.62-4.11-3.62h-9.4c-3.11,0-4.11.8-4.11,3.91Z"></path>
  <polygon class="cls-1" points="203.07 147.27 191.04 147.27 191.04 140.85 187.19 140.85 187.19 157.4 191.04 157.4 191.04 150.28 203.07 150.28 203.07 157.4 206.95 157.4 206.95 140.85 203.07 140.85 203.07 147.27"></polygon>
  <path class="cls-1" d="M219.45,140.85l-9.37,16.55h3.85l1.92-3.62h10.49l1.99,3.62h4.33l-9.5-16.55h-3.72ZM217.49,150.8l3.69-6.74,3.56,6.74h-7.25Z"></path>
  <path class="cls-1" d="M251.81,149.54c0,.51.06,1.48.16,2.85-.58-.67-1.22-1.25-1.89-1.8l-11.64-9.75h-2.63v16.55h3.46v-8.95c0-.48-.03-1.35-.16-2.63.45.51.9.93,1.38,1.35l12.16,10.23h2.63v-16.55h-3.46v8.69Z"></path>
  <polygon class="cls-1" points="261.57 140.85 261.57 157.4 265.45 157.4 265.45 150.12 275.37 157.4 281.56 157.4 269.24 148.65 280.21 140.85 274.63 140.85 265.45 147.75 265.45 140.85 261.57 140.85"></polygon>
  <path class="cls-1" d="M305.85,151.15c2.53,0,3.72-.9,3.72-3.21v-3.88c0-2.31-1.19-3.21-3.72-3.21h-14.18v16.55h3.79v-6.26h3.66l6.67,6.26h5.52l-7.63-6.26h2.18ZM295.46,148.32v-4.62h8.66c1.19,0,1.73.22,1.73,1.32v1.99c0,1.09-.55,1.31-1.73,1.31h-8.66Z"></path>
  <path class="cls-1" d="M319.01,140.85c-3.11,0-4.11.8-4.11,3.91v8.73c0,3.11.99,3.91,4.11,3.91h12.19c3.11,0,4.11-.8,4.11-3.91v-8.73c0-3.11-.99-3.91-4.11-3.91h-12.19ZM331.45,154.29h-12.7v-10.49h12.7v10.49Z"></path>
  <path class="cls-1" d="M345.04,157.4h12.19c3.11,0,4.11-.8,4.11-3.91v-8.73c0-3.11-.99-3.91-4.11-3.91h-12.19c-3.11,0-4.11.8-4.11,3.91v8.73c0,3.11.99,3.91,4.11,3.91ZM344.78,143.8h12.7v10.49h-12.7v-10.49Z"></path>
  <polygon class="cls-1" points="367.32 157.4 371.17 157.4 371.17 151.12 378.13 151.12 378.13 148.1 371.17 148.1 371.17 143.74 384.06 143.74 384.06 140.85 367.32 140.85 367.32 157.4"></polygon>
  <rect class="cls-1" x="386.7" y="140.85" width="3.85" height="16.55"></rect>
  <path class="cls-1" d="M412.85,149.54c0,.51.06,1.48.16,2.85-.58-.67-1.22-1.25-1.89-1.8l-11.64-9.75h-2.63v16.55h3.46v-8.95c0-.48-.03-1.35-.16-2.63.45.51.9.93,1.38,1.35l12.16,10.23h2.63v-16.55h-3.46v8.69Z"></path>
  <path class="cls-1" d="M426.37,157.4h11.42c3.11,0,4.11-.8,4.11-3.91v-5.71h-10.04v2.82h6.29v3.69h-12.03v-10.49h12.03v1.86l3.75-.67v-.39c0-2.98-1.09-3.75-4.11-3.75h-11.42c-3.11,0-4.11.8-4.11,3.91v8.73c0,3.11.99,3.91,4.11,3.91Z"></path>
  <path class="cls-1" d="M470.66,149.54c0,.51.06,1.48.16,2.85-.58-.67-1.22-1.25-1.89-1.8l-11.64-9.75h-2.63v16.55h3.46v-8.95c0-.48-.03-1.35-.16-2.63.45.51.9.93,1.38,1.35l12.16,10.23h2.63v-16.55h-3.46v8.69Z"></path>
  <path class="cls-1" d="M477.25,157.4h3.85l1.92-3.62h10.49l1.99,3.62h4.33l-9.5-16.55h-3.72l-9.37,16.55ZM491.9,150.8h-7.25l3.69-6.74,3.56,6.74Z"></path>
  <rect class="cls-1" x="503" y="140.85" width="3.85" height="16.55"></rect>
  <polygon class="cls-1" points="517.02 140.85 513.17 140.85 513.17 157.4 529.43 157.4 529.43 154.29 517.02 154.29 517.02 140.85"></polygon>
  <path class="cls-1" d="M546.75,147.3h-10.33v-3.56h10.84v1.89l3.4-.8v-.35c0-2.85-1.15-3.62-4.11-3.62h-9.4c-3.11,0-4.11.8-4.11,3.91v1.83c0,3.11.99,3.91,4.11,3.91h10.33v3.79h-11.71v-1.96l-3.4.71v.45c0,3.11,1.03,3.91,4.14,3.91h10.23c3.11,0,4.14-.8,4.14-3.91v-2.28c0-3.11-1.03-3.91-4.14-3.91Z"></path>
  <rect class="cls-1" x="562.37" y="140.96" width="19.79" height="2.94"></rect>
  <rect class="cls-1" x="562.37" y="147.32" width="19.79" height="2.94"></rect>
  <rect class="cls-1" x="562.37" y="153.67" width="19.79" height="2.94"></rect>
  <rect class="cls-1" x="40.07" y="140.96" width="19.79" height="2.94"></rect>
  <rect class="cls-1" x="40.07" y="147.32" width="19.79" height="2.94"></rect>
  <rect class="cls-1" x="40.07" y="153.67" width="19.79" height="2.94"></rect>
  <polygon class="cls-1" points="509.46 33.47 510.67 34.51 512.75 34.12 511.51 33.1 509.46 33.47"></polygon>
  <path class="cls-1" d="M510.39,32.15c-.47-.4-.93-.78-1.35-1.15l-2.03.36,1.36,1.16,2.02-.37Z"></path>
  <path class="cls-1" d="M506.62,32.85c-.46-.4-.92-.8-1.36-1.17l-2.56.45,1.39,1.19,2.52-.47Z"></path>
  <path class="cls-1" d="M514.42,31.41c-.48-.39-.94-.77-1.35-1.12l-2.27.4,1.35,1.13,2.26-.42Z"></path>
  <polygon class="cls-1" points="505.19 34.25 506.42 35.3 508.94 34.83 507.72 33.79 505.19 34.25"></polygon>
  <path class="cls-1" d="M491.44,34c.48,1.59,2.62,2.79,3.88,3.41,1.11.54,2.33.91,3.41,1.17.97.24,1.94.48,2.91.62.43.06.88.06,1.29.2.46.16.78.22.78.66l-.14,6.28-.14,1.22v.98c0,.09.06.21.02.31-.18.45-.36.58-.38.91,0,.3.51.8.51.99,0,.24-.71.48-.71,1.03,0,.37.81.75.81.92,0,.15-.81.76-.81,1.08,0,.57.81.66.81.98,0,.16-.81.73-.81,1.1s.81.75.81.92c0,.18-.81.69-.81,1.14,0,.11.81.78.81.89,0,.26-.81.65-.81,1.08,0,.4.81.71.81.96,0,.11-.81.98-.81,1.1s.81.82.81.94c0,.26-.71.45-.71,1.08,0,.11-.05.25.03.33.23.24.78.52.78.63,0,.22-.81.42-.81,1.05,0,.11-.03.3.13.42.24.19.68.38.68.49,0,.1-.81.65-.81,1.12,0,.11.09.36.23.49.15.14.58.33.58.45,0,.15-.81.56-.81,1.05,0,.52.81.66.81.94,0,.2-.81.54-.81,1.12,0,.37.81.75.81.92,0,.08-.81.7-.81,1.05,0,.38.81.73.81.94,0,.2-.81.75-.81,1.12,0,.44.81.64.81.89,0,.13-.81.72-.81,1.08,0,.4.81.71.81.96,0,.11-.47.41-.58.59-.08.13-.13.35-.13.46s-.03.3.13.42c.24.19.68.4.68.51,0,.13-.81.5-.81,1.1,0,.11.09.36.23.49.15.14.58.33.58.45,0,.22-.81.42-.81,1.05,0,.52.81.66.81.94,0,.19-.81.58-.81,1.08s.81.68.81.92-.81.62-.81,1.08c0,.57.81.66.81.98,0,.22-.81.63-.81,1.05,0,.37.81.75.81.92,0,.22-.81.63-.81,1.05,0,.39.81.71.81.96,0,.15-.81.76-.81,1.08,0,.11.81.8.81.92,0,.06-.81.82-.81,1.12,0,.11.81.78.81.89,0,.25-.71.67-.71,1.05,0,.35.71.69.71.94,0,.44-.71.4-.71,1.1,0,.11-.03.3.13.42.24.19.68.38.68.49,0,.16-.81.54-.81,1.08,0,.11.11.41.34.58.17.13.48.24.48.35,0,.15-.81.55-.81,1.08,0,.41.81.78.81.92,0,.06-.81.61-.81,1.12,0,.37.81.75.81.92,0,.29-.81.49-.81,1.05,0,.51.81.68.81.92,0,.16-.81.74-.81,1.1,0,.51.81.68.81.92,0,.09-.81.68-.81,1.08,0,.47.81.65.81.92,0,.13-.81.7-.81,1.1,0,.42.81.76.81.94,0,.09-.81.69-.81,1.08,0,0,.07.27.08.29.09.15.28.28.28.37s-.14.18-.17.3c-.07.27-.12.83-.12.92s.02.59.12.81c.17.39.24.31.24.59,0,.31-.18.7-.18,1.33,0,2.7,1.34,6.61,2.5,8.97.19.39,1.37,2.88,2.06,2.88,1.2,0,2.84-4.1,3.04-4.68.37-1.05.7-2.23.93-3.27.27-1.21.46-2.44.59-3.67l.11-2.34c-.11-.17.43-.78.43-1.13s-.25-.37-.25-.68c0-.16.14-.31.22-.5,0-.39-.56-1.19-.56-1.27,0-.18.81-.52.81-.94,0-.4-.81-.97-.81-1.1,0-.27.81-.44.81-.92,0-.4-.81-.98-.81-1.08,0-.23.81-.41.81-.92,0-.36-.81-.94-.81-1.1,0-.23.81-.41.81-.92,0-.56-.81-.77-.81-1.05,0-.17.81-.54.81-.92,0-.51-.81-1.06-.81-1.12,0-.13.81-.51.81-.92,0-.53-.81-.92-.81-1.08,0-.11.31-.22.48-.35.23-.18.34-.47.34-.58,0-.53-.81-.92-.81-1.08,0-.11.44-.3.68-.49.17-.13.13-.31.13-.42,0-.7-.71-.66-.71-1.1,0-.25.71-.59.71-.94,0-.38-.71-.8-.71-1.05,0-.11.81-.78.81-.89,0-.3-.81-1.06-.81-1.12,0-.11.81-.8.81-.92,0-.32-.81-.92-.81-1.08,0-.25.81-.57.81-.96,0-.42-.81-.84-.81-1.05,0-.17.81-.54.81-.92,0-.42-.81-.84-.81-1.05,0-.33.81-.41.81-.98,0-.46-.81-.85-.81-1.08s.81-.41.81-.92-.81-.89-.81-1.08c0-.28.81-.42.81-.94,0-.63-.81-.84-.81-1.05,0-.11.43-.31.58-.45.14-.13.23-.38.23-.49,0-.6-.81-.97-.81-1.1,0-.11.44-.33.68-.51.17-.13.13-.31.13-.42s-.05-.33-.13-.46c-.11-.18-.58-.47-.58-.59,0-.25.81-.57.81-.96,0-.36-.81-.95-.81-1.08,0-.26.81-.46.81-.89,0-.37-.81-.92-.81-1.12,0-.21.81-.56.81-.94,0-.35-.81-.97-.81-1.05,0-.17.81-.54.81-.92,0-.58-.81-.92-.81-1.12,0-.28.81-.42.81-.94,0-.49-.81-.9-.81-1.05,0-.11.43-.31.58-.45.14-.13.23-.38.23-.49,0-.48-.81-1.02-.81-1.12,0-.11.44-.3.68-.49.17-.13.13-.31.13-.42,0-.63-.81-.84-.81-1.05,0-.11.55-.39.78-.63.08-.08.03-.21.03-.33,0-.63-.71-.82-.71-1.08,0-.11.81-.82.81-.94s-.81-.98-.81-1.1c0-.25.81-.57.81-.96,0-.42-.81-.82-.81-1.08,0-.11.81-.78.81-.89,0-.45-.81-.97-.81-1.14,0-.17.81-.54.81-.92s-.81-.94-.81-1.1c0-.33.81-.41.81-.98,0-.32-.81-.92-.81-1.08,0-.17.81-.54.81-.92,0-.55-.71-.79-.71-1.03,0-.19.15-.74.15-1.04,0-.09-.06-.31-.12-.44-.08-.15-.24-.28-.26-.43-.09-.57-.12-1.15-.21-1.69v-6.89c-.02-.24-.09-.79.36-.87,1.04-.2,2.08-.34,3.12-.61,2.57-.67,5.22-1.48,7.75-3.51.28-.23.72-.73.87-1,.14-.25.27-.9.27-1.27s-.12-1.13-.34-1.45c-1.07-1.51-2.78-2.12-4.09-2.62-.56-.21-1.19-.37-1.76-.53-2.36-.66-4.9-.98-7.26-1.17l-4.45-.11-2.16.11c-2.4.24-4.84.47-7.19,1.21-.56.17-1.17.29-1.69.49-1.5.58-3.81,1.41-4.45,3.27-.09.27-.08.8-.08.89s0,.61.08.88ZM508.11,130.04c0,.08-.04.12-.07.15h-.14c-.83-1.22-1.53-2.63-1.97-3.96-.19-.59-.32-1.21-.48-1.81-.22-.83-.42-1.68-.42-2.51,0-.59.03-1.39.35-1.95.23-.41.54-.41.76-.41.8,0,.98,1.36,1.11,1.72.45,1.2.61,2.62.73,3.85l.12,3.28v1.63ZM508.17,114.74l-2.92.44c-.47.07-1.26-.89-.89-1.35.17-.21.51-.76.91-.68l2.92.56c.68.13.67.93-.02,1.03ZM508.17,111.84l-2.92.44c-.47.07-1.26-.89-.89-1.35.17-.21.51-.76.91-.68l2.92.56c.68.13.67.92-.02,1.03ZM508.17,108.94l-2.92.44c-.47.07-1.26-.89-.89-1.35.17-.21.51-.76.91-.68l2.92.56c.68.13.67.93-.02,1.03ZM508.17,106.03l-2.92.44c-.47.07-1.26-.89-.89-1.35.17-.21.51-.76.91-.68l2.92.56c.68.13.67.93-.02,1.03ZM508.17,103.13l-2.92.44c-.47.07-1.26-.89-.89-1.35.17-.21.51-.76.91-.68l2.92.56c.68.13.67.93-.02,1.03ZM508.17,100.23l-2.92.44c-.47.07-1.26-.89-.89-1.35.17-.21.51-.76.91-.68l2.92.56c.68.13.67.92-.02,1.03ZM508.17,97.33l-2.92.44c-.47.07-1.26-.89-.89-1.35.17-.21.51-.76.91-.68l2.92.56c.68.13.67.93-.02,1.03ZM508.17,94.43l-2.92.44c-.47.07-1.26-.89-.89-1.35.17-.21.51-.76.91-.68l2.92.56c.68.13.67.93-.02,1.03ZM508.17,91.53l-2.92.44c-.47.07-1.26-.89-.89-1.35.17-.21.51-.76.91-.68l2.92.56c.68.13.67.92-.02,1.03ZM508.17,88.63l-2.92.44c-.47.07-1.26-.89-.89-1.35.17-.21.51-.76.91-.68l2.92.56c.68.13.67.93-.02,1.03ZM508.17,85.73l-2.92.44c-.47.07-1.26-.89-.89-1.35.17-.21.51-.76.91-.68l2.92.56c.68.13.67.93-.02,1.03ZM508.17,82.83l-2.92.44c-.47.07-1.26-.89-.89-1.35.17-.21.51-.76.91-.68l2.92.56c.68.13.67.93-.02,1.03ZM508.17,79.93l-2.92.44c-.47.07-1.26-.89-.89-1.35.17-.21.51-.76.91-.68l2.92.56c.68.13.67.92-.02,1.03ZM508.17,77.03l-2.92.44c-.47.07-1.26-.89-.89-1.35.17-.21.51-.76.91-.68l2.92.56c.68.13.67.93-.02,1.03ZM508.17,74.13l-2.92.44c-.47.07-1.26-.89-.89-1.35.17-.21.51-.76.91-.68l2.92.56c.68.13.67.93-.02,1.03ZM508.17,71.23l-2.92.44c-.47.07-1.26-.89-.89-1.35.17-.21.51-.76.91-.68l2.92.56c.68.13.67.92-.02,1.03ZM508.17,68.33l-2.92.44c-.47.07-1.26-.89-.89-1.35.17-.21.51-.76.91-.68l2.92.56c.68.13.67.93-.02,1.03ZM508.17,65.43l-2.92.44c-.47.07-1.26-.89-.89-1.35.17-.21.51-.76.91-.68l2.92.56c.68.13.67.93-.02,1.03ZM508.17,62.53l-2.92.44c-.47.07-1.26-.89-.89-1.35.17-.21.51-.76.91-.68l2.92.56c.68.13.67.93-.02,1.03ZM508.17,59.63l-2.92.44c-.47.07-1.26-.89-.89-1.35.17-.21.51-.76.91-.68l2.92.56c.68.13.67.93-.02,1.03ZM508.17,56.73l-2.92.44c-.47.07-1.26-.89-.89-1.35.17-.21.51-.76.91-.68l2.92.56c.68.13.67.93-.02,1.03ZM508.17,53.83l-2.92.44c-.47.07-1.26-.89-.89-1.35.17-.21.51-.76.91-.68l2.92.56c.68.13.67.93-.02,1.03ZM508.17,50.92l-2.92.44c-.47.07-1.26-.89-.89-1.35.17-.21.51-.76.91-.68l2.92.56c.68.13.67.92-.02,1.03ZM504.9,47.62v-6.72c0-1.08,2.42-.57,2.42.25v6.97c0,1.26-2.42.22-2.42-.49ZM494.32,32.52s.73-.13,1.9-.34c-.79-.71-1.33-1.24-1.28-1.31.4-.5.87-.46,1.52-.25.06.02.69.54,1.51,1.25l1.91-.34c-1-.88-1.68-1.52-1.63-1.58.4-.5.87-.46,1.52-.25.05.02.81.64,1.85,1.53l2.59-.45c-1.03-.91-1.74-1.57-1.74-1.65.01-.22.87-.46,1.52-.25.05.02.84.67,1.93,1.6l2.06-.36c-.74-.66-1.22-1.11-1.17-1.17.4-.5.87-.46,1.52-.25.05.01.59.46,1.38,1.11l2.31-.4c-.4-.36-.63-.6-.6-.64.4-.5.72-.41,1.38-.2.04.01.32.23.77.57,1.18-.2,1.91-.33,1.92-.33.64,0,1.27.57.44.97-.01,0-.47.09-1.25.23l1.39,1.1,2.69-.49c.68-.05,1.23.68.39,1.08-.01,0-.73.14-1.9.36l1.27,1.01c1.5-.27,2.5-.45,2.53-.45.58.02.4.85-.18,1.14-.01,0-.46.09-1.2.23l.74.59s-.62.34-1.56.36c-.03,0-.36-.24-.87-.64l-2.4.44,1.32,1.12s-.62.34-1.56.36c-.04,0-.63-.46-1.48-1.16l-2.13.39,1.45,1.25s-.62.34-1.56.36c-.04,0-.68-.52-1.61-1.29l-2.55.47,1.25,1.07s-.62.34-1.56.36c-.03,0-.59-.44-1.41-1.11l-1.84.34s-1.26-.47-.58-.99c0,0,.5-.1,1.32-.25l-1.25-1.05-1.92.35.85.74s.39.67-1.27.58c-.04,0-.56-.42-1.29-1.01l-2.7.49s-1.26-.47-.58-.99c0,0,.84-.16,2.18-.41-.47-.4-.97-.82-1.44-1.22l-2.36.42s-1.26-.47-.58-.99Z"></path>
  <path class="cls-1" d="M502.32,33.64c-.48-.41-.95-.81-1.4-1.2l-1.89.33,1.4,1.21,1.89-.35Z"></path>
  <path class="cls-1" d="M514.5,33.8l2.34-.43c-.4-.31-.83-.66-1.26-1.01l-2.29.42,1.22,1.02Z"></path>
  <path class="cls-1" d="M513.86,121.17c-.14,1.27-.34,2.6-.62,3.85-.21.92-.49,1.96-.81,2.93h6.79l.51-.51V39.01c-1.18.45-2.35.77-3.46,1.06-.84.22-1.67.35-2.5.5v6.49c.09.58.12,1.2.34,1.63.11.23.26.66.26,1.02,0,.17-.03.39-.06.61.26.26.62.75.62,1.45,0,.45-.19.79-.33,1,.24.36.33.72.33,1,0,.43-.14.79-.33,1.07.12.18.33.54.33,1.02s-.19.79-.34,1c.14.21.34.58.34,1.06,0,.11-.13.48-.38.88.15.2.38.58.38,1.09,0,.42-.15.77-.39,1.06.22.3.39.62.39,1,0,.11-.14.51-.41.92.17.28.31.64.31,1.09,0,.37-.06.75-.25,1.05.14.26.25.58.25.97,0,.3-.03.7-.27,1.07.13.22.27.56.27.97,0,.32-.11.68-.29.99.14.23.29.57.29,1s-.14.75-.31,1c.17.28.31.63.31,1.06s-.17.77-.32.98c.12.18.32.54.32.99s-.2.81-.35,1.02c.12.17.35.55.35,1.04,0,.34-.12.67-.33.97.12.18.33.54.33,1s-.19.8-.34,1.01c.15.32.24.7.24,1s-.03.68-.26,1.05c.15.27.26.6.26.99,0,.31-.11.66-.28.97.16.27.28.61.28,1.02s-.13.74-.3,1c.15.23.3.58.3,1.01,0,.41-.14.74-.3,1,.14.22.3.56.3,1s-.13.76-.32,1.04c.14.21.32.56.32,1s-.17.76-.32.97c.14.21.32.56.32,1s-.19.81-.35,1.02c.25.36.35.74.35,1.02,0,.11-.14.51-.41.92.32.48.41.86.41,1.12,0,.11-.14.52-.42.94.13.19.32.54.32,1.01,0,.29-.11.62-.31.93.18.27.31.64.31,1.11,0,.29-.03.68-.25,1.04.13.24.25.56.25.95,0,.32-.11.67-.3.99.15.24.3.59.3,1.02s-.17.76-.31.98c.14.23.31.6.31,1.06,0,.41-.16.74-.3.95.17.26.3.61.3,1.02s-.15.77-.32,1.02c.12.18.32.54.32.99,0,.41-.14.75-.31,1,.12.19.31.55.31.99s-.15.76-.32,1c.12.19.32.55.32,1.01,0,.54-.26.93-.42,1.13l-.1.11c.2.21.27.72.27.97,0,.02-.07.34-.1.48.07.18.13.42.13.7,0,.47-.2.88-.42,1.27l-.12,2.29Z"></path>
  <path class="cls-1" d="M502.11,47.41l.14-1.16.13-5.63c-.31-.06-.62-.07-.93-.11-1.01-.15-2.02-.4-3.03-.65-.75-.18-1.58-.42-2.41-.73v88.8h7.68c-.85-2.26-1.59-4.97-1.59-7.11,0-.46.18-.9.18-1.33-.22-.52-.36-.84-.36-1.4,0-.15.04-.69.12-1.1l-.16-.46-.04-.32c0-.47.2-.83.32-1.02-.15-.22-.32-.56-.32-1s.2-.82.32-1.01c-.17-.24-.32-.58-.32-1,0-.44.18-.8.31-.99-.17-.25-.31-.59-.31-1,0-.46.2-.81.32-.99-.17-.25-.32-.6-.32-1.02s.13-.76.3-1.02c-.14-.21-.3-.53-.3-.95,0-.46.17-.83.31-1.06-.15-.22-.31-.55-.31-.98s.15-.77.3-1.02c-.19-.32-.3-.68-.3-1,0-.39.12-.71.25-.95-.23-.36-.25-.75-.25-1.04,0-.47.14-.83.31-1.11-.2-.31-.31-.64-.31-.93,0-.46.2-.82.32-1.01-.28-.42-.42-.83-.42-.94,0-.26.09-.64.35-1.03-.21-.5-.35-.9-.35-1.01,0-.28.1-.65.35-1.02-.16-.21-.35-.56-.35-1.02s.17-.78.32-1c-.15-.21-.32-.54-.32-.97s.17-.78.32-1c-.18-.27-.32-.62-.32-1.04s.16-.77.3-1c-.17-.25-.3-.59-.3-1,0-.43.16-.78.3-1.01-.17-.26-.3-.59-.3-1s.12-.75.28-1.02c-.17-.31-.28-.66-.28-.97,0-.39.11-.72.26-.99-.23-.36-.26-.75-.26-1.05s.09-.68.24-1c-.16-.21-.34-.56-.34-1.01s.21-.82.33-1c-.21-.29-.33-.62-.33-.97,0-.49.23-.87.35-1.04-.15-.21-.35-.56-.35-1.02s.2-.82.32-.99c-.15-.21-.32-.54-.32-.98s.14-.78.31-1.06c-.17-.26-.31-.59-.31-1s.15-.76.29-1c-.18-.31-.29-.67-.29-.99,0-.41.14-.75.27-.97-.24-.37-.27-.77-.27-1.07,0-.39.1-.71.25-.97-.18-.3-.25-.68-.25-1.05,0-.45.14-.81.31-1.09-.27-.42-.41-.82-.41-.92,0-.38.17-.7.39-1-.24-.3-.39-.65-.39-1.06,0-.51.23-.89.38-1.09-.26-.39-.38-.77-.38-.88,0-.48.2-.85.34-1.06-.15-.21-.34-.55-.34-1,0-.47.22-.84.33-1.02-.19-.28-.33-.64-.33-1.07,0-.28.09-.64.33-1-.15-.21-.33-.55-.33-1,0-.53.21-.93.42-1.21-.14-.31-.22-.62-.22-.85.03-.53.24-.84.44-1.29-.03.03-.07.06-.09.1v-1.13Z"></path>
</svg>
