<?xml version="1.0" encoding="UTF-8"?>
<svg id="Layer_1" data-name="Layer 1" xmlns="http://www.w3.org/2000/svg" viewBox="0 0 236.33 745.48">
  <defs>
    <style>
      .cls-1 {
        fill: #f16122;
      }
    </style>
  </defs>
  <polygon class="cls-1" points="127.73 44.84 136.28 52.18 150.96 49.43 142.21 42.22 127.73 44.84"/>
  <path class="cls-1" d="M134.3,35.52c-3.32-2.82-6.57-5.51-9.53-8.12l-14.33,2.54,9.6,8.19,14.26-2.61h0Z"/>
  <path class="cls-1" d="M107.68,40.46c-3.25-2.82-6.5-5.65-9.6-8.26l-18.08,3.18,9.81,8.4,17.79-3.32h.07Z"/>
  <path class="cls-1" d="M162.76,30.29c-3.39-2.75-6.64-5.44-9.53-7.91l-16.03,2.82,9.53,7.98,15.96-2.97.07.07Z"/>
  <polygon class="cls-1" points="97.58 50.34 106.27 57.76 124.06 54.44 115.45 47.1 97.58 50.34"/>
  <path class="cls-1" d="M.5,48.58c3.39,11.23,18.5,19.7,27.4,24.08,7.84,3.81,16.45,6.43,24.08,8.26,6.85,1.69,13.7,3.39,20.55,4.38,3.04.42,6.21.42,9.11,1.41,3.25,1.13,5.51,1.55,5.51,4.66l-.99,44.34-.99,8.61v6.92c0,.64.42,1.48.14,2.19-1.27,3.18-2.54,4.1-2.68,6.43,0,2.12,3.6,5.65,3.6,6.99,0,1.69-5.01,3.39-5.01,7.27,0,2.61,5.72,5.3,5.72,6.5,0,1.06-5.72,5.37-5.72,7.63,0,4.02,5.72,4.66,5.72,6.92,0,1.13-5.72,5.15-5.72,7.77s5.72,5.3,5.72,6.5c0,1.27-5.72,4.87-5.72,8.05,0,.78,5.72,5.51,5.72,6.28,0,1.84-5.72,4.59-5.72,7.63,0,2.82,5.72,5.01,5.72,6.78,0,.78-5.72,6.92-5.72,7.77s5.72,5.79,5.72,6.64c0,1.84-5.01,3.18-5.01,7.63,0,.78-.35,1.77.21,2.33,1.62,1.69,5.51,3.67,5.51,4.45,0,1.55-5.72,2.97-5.72,7.41,0,.78-.21,2.12.92,2.97,1.69,1.34,4.8,2.68,4.8,3.46,0,.71-5.72,4.59-5.72,7.91,0,.78.64,2.54,1.62,3.46,1.06.99,4.1,2.33,4.1,3.18,0,1.06-5.72,3.95-5.72,7.41,0,3.67,5.72,4.66,5.72,6.64,0,1.41-5.72,3.81-5.72,7.91,0,2.61,5.72,5.3,5.72,6.5,0,.56-5.72,4.94-5.72,7.41,0,2.68,5.72,5.15,5.72,6.64s-5.72,5.3-5.72,7.91c0,3.11,5.72,4.52,5.72,6.28,0,.92-5.72,5.08-5.72,7.63,0,2.82,5.72,5.01,5.72,6.78,0,.78-3.32,2.89-4.1,4.17-.56.92-.92,2.47-.92,3.25s-.21,2.12.92,2.97c1.69,1.34,4.8,2.82,4.8,3.6,0,.92-5.72,3.53-5.72,7.77,0,.78.64,2.54,1.62,3.46,1.06.99,4.1,2.33,4.1,3.18,0,1.55-5.72,2.97-5.72,7.41,0,3.67,5.72,4.66,5.72,6.64,0,1.34-5.72,4.1-5.72,7.63s5.72,4.8,5.72,6.5-5.72,4.38-5.72,7.63c0,4.02,5.72,4.66,5.72,6.92,0,1.55-5.72,4.45-5.72,7.41,0,2.61,5.72,5.3,5.72,6.5,0,1.55-5.72,4.45-5.72,7.41,0,2.75,5.72,5.01,5.72,6.78,0,1.06-5.72,5.37-5.72,7.63,0,.78,5.72,5.65,5.72,6.5,0,.42-5.72,5.79-5.72,7.91,0,.78,5.72,5.51,5.72,6.28,0,1.77-5.01,4.73-5.01,7.41,0,2.47,5.01,4.87,5.01,6.64,0,3.11-5.01,2.82-5.01,7.77,0,.78-.21,2.12.92,2.97,1.69,1.34,4.8,2.68,4.8,3.46,0,1.13-5.72,3.81-5.72,7.63,0,.78.78,2.89,2.4,4.1,1.2.92,3.39,1.69,3.39,2.47,0,1.06-5.72,3.88-5.72,7.63,0,2.89,5.72,5.51,5.72,6.5,0,.42-5.72,4.31-5.72,7.91,0,2.61,5.72,5.3,5.72,6.5,0,2.05-5.72,3.46-5.72,7.41,0,3.6,5.72,4.8,5.72,6.5,0,1.13-5.72,5.22-5.72,7.77,0,3.6,5.72,4.8,5.72,6.5,0,.64-5.72,4.8-5.72,7.63,0,3.32,5.72,4.59,5.72,6.5,0,.92-5.72,4.94-5.72,7.77,0,2.97,5.72,5.37,5.72,6.64,0,.64-5.72,4.87-5.72,7.63,0,0,.49,1.91.56,2.05.64,1.06,1.98,1.98,1.98,2.61s-.99,1.27-1.2,2.12c-.49,1.91-.85,5.86-.85,6.5s.14,4.17.85,5.72c1.2,2.75,1.69,2.19,1.69,4.17,0,2.19-1.27,4.94-1.27,9.39,0,19.06,9.46,46.67,17.65,63.34,1.34,2.75,9.67,20.34,14.55,20.34,8.47,0,20.05-28.95,21.46-33.04,2.61-7.41,4.94-15.75,6.57-23.09,1.91-8.54,3.25-17.23,4.17-25.91l.78-16.52c-.78-1.2,3.04-5.51,3.04-7.98s-1.77-2.61-1.77-4.8c0-1.13.99-2.19,1.55-3.53,0-2.75-3.95-8.4-3.95-8.97,0-1.27,5.72-3.67,5.72-6.64s-5.72-6.85-5.72-7.77c0-1.91,5.72-3.11,5.72-6.5,0-2.82-5.72-6.92-5.72-7.63,0-1.62,5.72-2.89,5.72-6.5,0-2.54-5.72-6.64-5.72-7.77,0-1.62,5.72-2.89,5.72-6.5,0-3.95-5.72-5.44-5.72-7.41,0-1.2,5.72-3.81,5.72-6.5,0-3.6-5.72-7.48-5.72-7.91,0-.92,5.72-3.6,5.72-6.5,0-3.74-5.72-6.5-5.72-7.63,0-.78,2.19-1.55,3.39-2.47,1.62-1.27,2.4-3.32,2.4-4.1,0-3.74-5.72-6.5-5.72-7.63,0-.78,3.11-2.12,4.8-3.46,1.2-.92.92-2.19.92-2.97,0-4.94-5.01-4.66-5.01-7.77,0-1.77,5.01-4.17,5.01-6.64,0-2.68-5.01-5.65-5.01-7.41,0-.78,5.72-5.51,5.72-6.28,0-2.12-5.72-7.48-5.72-7.91,0-.78,5.72-5.65,5.72-6.5,0-2.26-5.72-6.5-5.72-7.63,0-1.77,5.72-4.02,5.72-6.78,0-2.97-5.72-5.93-5.72-7.41,0-1.2,5.72-3.81,5.72-6.5,0-2.97-5.72-5.93-5.72-7.41,0-2.33,5.72-2.89,5.72-6.92,0-3.25-5.72-6-5.72-7.63s5.72-2.89,5.72-6.5-5.72-6.28-5.72-7.63c0-1.98,5.72-2.97,5.72-6.64,0-4.45-5.72-5.93-5.72-7.41,0-.78,3.04-2.19,4.1-3.18.99-.92,1.62-2.68,1.62-3.46,0-4.24-5.72-6.85-5.72-7.77,0-.78,3.11-2.33,4.8-3.6,1.2-.92.92-2.19.92-2.97s-.35-2.33-.92-3.25c-.78-1.27-4.1-3.32-4.1-4.17,0-1.77,5.72-4.02,5.72-6.78,0-2.54-5.72-6.71-5.72-7.63,0-1.84,5.72-3.25,5.72-6.28,0-2.61-5.72-6.5-5.72-7.91,0-1.48,5.72-3.95,5.72-6.64,0-2.47-5.72-6.85-5.72-7.41,0-1.2,5.72-3.81,5.72-6.5,0-4.1-5.72-6.5-5.72-7.91,0-1.98,5.72-2.97,5.72-6.64,0-3.46-5.72-6.35-5.72-7.41,0-.78,3.04-2.19,4.1-3.18.99-.92,1.62-2.68,1.62-3.46,0-3.39-5.72-7.2-5.72-7.91,0-.78,3.11-2.12,4.8-3.46,1.2-.92.92-2.19.92-2.97,0-4.45-5.72-5.93-5.72-7.41,0-.78,3.88-2.75,5.51-4.45.56-.56.21-1.48.21-2.33,0-4.45-5.01-5.79-5.01-7.63,0-.78,5.72-5.79,5.72-6.64s-5.72-6.92-5.72-7.77c0-1.77,5.72-4.02,5.72-6.78,0-2.97-5.72-5.79-5.72-7.63,0-.78,5.72-5.51,5.72-6.28,0-3.18-5.72-6.85-5.72-8.05s5.72-3.81,5.72-6.5-5.72-6.64-5.72-7.77c0-2.33,5.72-2.89,5.72-6.92,0-2.26-5.72-6.5-5.72-7.63,0-1.2,5.72-3.81,5.72-6.5,0-3.88-5.01-5.58-5.01-7.27,0-1.34,1.06-5.23,1.06-7.34,0-.64-.42-2.19-.85-3.11-.56-1.06-1.69-1.98-1.84-3.04-.64-4.02-.85-8.12-1.48-11.93v-48.65c-.14-1.69-.64-5.58,2.54-6.14,7.34-1.41,14.69-2.4,22.03-4.31,18.15-4.73,36.86-10.45,54.72-24.78,1.98-1.62,5.08-5.15,6.14-7.06.99-1.77,1.91-6.35,1.91-8.97s-.85-7.98-2.4-10.24c-7.56-10.66-19.63-14.97-28.88-18.5-3.95-1.48-8.4-2.61-12.43-3.74-16.66-4.66-34.6-6.92-51.26-8.26l-31.42-.78-15.25.78c-16.95,1.69-34.17,3.32-50.77,8.54-3.95,1.2-8.26,2.05-11.93,3.46C21.4,16.88,5.09,22.74.57,35.87-.07,37.78,0,41.52,0,42.15S0,46.46.57,48.37l-.07.21ZM118.2,726.7c0,.56-.28.85-.49,1.06h-.99c-5.86-8.61-10.8-18.57-13.91-27.96-1.34-4.17-2.26-8.54-3.39-12.78-1.55-5.86-2.97-11.86-2.97-17.72,0-4.17.21-9.81,2.47-13.77,1.62-2.89,3.81-2.89,5.37-2.89,5.65,0,6.92,9.6,7.84,12.14,3.18,8.47,4.31,18.5,5.15,27.18l.85,23.16v11.51l.07.07ZM118.63,618.67l-20.62,3.11c-3.32.49-8.9-6.28-6.28-9.53,1.2-1.48,3.6-5.37,6.43-4.8l20.62,3.95c4.8.92,4.73,6.57-.14,7.27ZM118.63,598.19l-20.62,3.11c-3.32.49-8.9-6.28-6.28-9.53,1.2-1.48,3.6-5.37,6.43-4.8l20.62,3.95c4.8.92,4.73,6.5-.14,7.27ZM118.63,577.72l-20.62,3.11c-3.32.49-8.9-6.28-6.28-9.53,1.2-1.48,3.6-5.37,6.43-4.8l20.62,3.95c4.8.92,4.73,6.57-.14,7.27ZM118.63,557.17l-20.62,3.11c-3.32.49-8.9-6.28-6.28-9.53,1.2-1.48,3.6-5.37,6.43-4.8l20.62,3.95c4.8.92,4.73,6.57-.14,7.27ZM118.63,536.69l-20.62,3.11c-3.32.49-8.9-6.28-6.28-9.53,1.2-1.48,3.6-5.37,6.43-4.8l20.62,3.95c4.8.92,4.73,6.57-.14,7.27ZM118.63,516.22l-20.62,3.11c-3.32.49-8.9-6.28-6.28-9.53,1.2-1.48,3.6-5.37,6.43-4.8l20.62,3.95c4.8.92,4.73,6.5-.14,7.27ZM118.63,495.74l-20.62,3.11c-3.32.49-8.9-6.28-6.28-9.53,1.2-1.48,3.6-5.37,6.43-4.8l20.62,3.95c4.8.92,4.73,6.57-.14,7.27ZM118.63,475.26l-20.62,3.11c-3.32.49-8.9-6.28-6.28-9.53,1.2-1.48,3.6-5.37,6.43-4.8l20.62,3.95c4.8.92,4.73,6.57-.14,7.27ZM118.63,454.79l-20.62,3.11c-3.32.49-8.9-6.28-6.28-9.53,1.2-1.48,3.6-5.37,6.43-4.8l20.62,3.95c4.8.92,4.73,6.5-.14,7.27ZM118.63,434.31l-20.62,3.11c-3.32.49-8.9-6.28-6.28-9.53,1.2-1.48,3.6-5.37,6.43-4.8l20.62,3.95c4.8.92,4.73,6.57-.14,7.27ZM118.63,413.83l-20.62,3.11c-3.32.49-8.9-6.28-6.28-9.53,1.2-1.48,3.6-5.37,6.43-4.8l20.62,3.95c4.8.92,4.73,6.57-.14,7.27ZM118.63,393.36l-20.62,3.11c-3.32.49-8.9-6.28-6.28-9.53,1.2-1.48,3.6-5.37,6.43-4.8l20.62,3.95c4.8.92,4.73,6.57-.14,7.27ZM118.63,372.88l-20.62,3.11c-3.32.49-8.9-6.28-6.28-9.53,1.2-1.48,3.6-5.37,6.43-4.8l20.62,3.95c4.8.92,4.73,6.5-.14,7.27ZM118.63,352.41l-20.62,3.11c-3.32.49-8.9-6.28-6.28-9.53,1.2-1.48,3.6-5.37,6.43-4.8l20.62,3.95c4.8.92,4.73,6.57-.14,7.27ZM118.63,331.93l-20.62,3.11c-3.32.49-8.9-6.28-6.28-9.53,1.2-1.48,3.6-5.37,6.43-4.8l20.62,3.95c4.8.92,4.73,6.57-.14,7.27ZM118.63,311.45l-20.62,3.11c-3.32.49-8.9-6.28-6.28-9.53,1.2-1.48,3.6-5.37,6.43-4.8l20.62,3.95c4.8.92,4.73,6.5-.14,7.27ZM118.63,290.98l-20.62,3.11c-3.32.49-8.9-6.28-6.28-9.53,1.2-1.48,3.6-5.37,6.43-4.8l20.62,3.95c4.8.92,4.73,6.57-.14,7.27ZM118.63,270.5l-20.62,3.11c-3.32.49-8.9-6.28-6.28-9.53,1.2-1.48,3.6-5.37,6.43-4.8l20.62,3.95c4.8.92,4.73,6.57-.14,7.27ZM118.63,250.02l-20.62,3.11c-3.32.49-8.9-6.28-6.28-9.53,1.2-1.48,3.6-5.37,6.43-4.8l20.62,3.95c4.8.92,4.73,6.57-.14,7.27ZM118.63,229.55l-20.62,3.11c-3.32.49-8.9-6.28-6.28-9.53,1.2-1.48,3.6-5.37,6.43-4.8l20.62,3.95c4.8.92,4.73,6.57-.14,7.27ZM118.63,209.07l-20.62,3.11c-3.32.49-8.9-6.28-6.28-9.53,1.2-1.48,3.6-5.37,6.43-4.8l20.62,3.95c4.8.92,4.73,6.57-.14,7.27ZM118.63,188.59l-20.62,3.11c-3.32.49-8.9-6.28-6.28-9.53,1.2-1.48,3.6-5.37,6.43-4.8l20.62,3.95c4.8.92,4.73,6.57-.14,7.27ZM118.63,168.05l-20.62,3.11c-3.32.49-8.9-6.28-6.28-9.53,1.2-1.48,3.6-5.37,6.43-4.8l20.62,3.95c4.8.92,4.73,6.5-.14,7.27ZM95.54,144.75v-47.45c0-7.63,17.09-4.02,17.09,1.77v49.21c0,8.9-17.09,1.55-17.09-3.46v-.07ZM20.83,38.13s5.15-.92,13.42-2.4c-5.58-5.01-9.39-8.76-9.04-9.25,2.82-3.53,6.14-3.25,10.73-1.77.42.14,4.87,3.81,10.66,8.83l13.49-2.4c-7.06-6.21-11.86-10.73-11.51-11.16,2.82-3.53,6.14-3.25,10.73-1.77.35.14,5.72,4.52,13.06,10.8l18.29-3.18c-7.27-6.43-12.29-11.09-12.29-11.65.07-1.55,6.14-3.25,10.73-1.77.35.14,5.93,4.73,13.63,11.3l14.55-2.54c-5.22-4.66-8.61-7.84-8.26-8.26,2.82-3.53,6.14-3.25,10.73-1.77.35.07,4.17,3.25,9.74,7.84l16.31-2.82c-2.82-2.54-4.45-4.24-4.24-4.52,2.82-3.53,5.08-2.89,9.74-1.41.28.07,2.26,1.62,5.44,4.02,8.33-1.41,13.49-2.33,13.56-2.33,4.52,0,8.97,4.02,3.11,6.85-.07,0-3.32.64-8.83,1.62l9.81,7.77,18.99-3.46c4.8-.35,8.68,4.8,2.75,7.63-.07,0-5.15.99-13.42,2.54l8.97,7.13c10.59-1.91,17.65-3.18,17.86-3.18,4.1.14,2.82,6-1.27,8.05-.07,0-3.25.64-8.47,1.62l5.22,4.17s-4.38,2.4-11.01,2.54c-.21,0-2.54-1.69-6.14-4.52l-16.95,3.11,9.32,7.91s-4.38,2.4-11.01,2.54c-.28,0-4.45-3.25-10.45-8.19l-15.04,2.75,10.24,8.83s-4.38,2.4-11.01,2.54c-.28,0-4.8-3.67-11.37-9.11l-18,3.32,8.83,7.56s-4.38,2.4-11.01,2.54c-.21,0-4.17-3.11-9.96-7.84l-12.99,2.4s-8.9-3.32-4.1-6.99c0,0,3.53-.71,9.32-1.77l-8.83-7.41-13.56,2.47,6,5.23s2.75,4.73-8.97,4.1c-.28,0-3.95-2.97-9.11-7.13l-19.06,3.46s-8.9-3.32-4.1-6.99c0,0,5.93-1.13,15.39-2.89-3.32-2.82-6.85-5.79-10.17-8.61l-16.66,2.97s-8.9-3.32-4.1-6.99l.28-.35Z"/>
  <path class="cls-1" d="M77.32,46.04c-3.39-2.89-6.71-5.72-9.89-8.47l-13.35,2.33,9.89,8.54,13.35-2.47v.07Z"/>
  <path class="cls-1" d="M163.32,47.17l16.52-3.04c-2.82-2.19-5.86-4.66-8.9-7.13l-16.17,2.97,8.61,7.2h-.07Z"/>
</svg>